<svg id="SvgjsSvg1001" width="288" height="288" xmlns="http://www.w3.org/2000/svg" version="1.1" xmlns:xlink="http://www.w3.org/1999/xlink" xmlns:svgjs="http://svgjs.com/svgjs"><defs id="SvgjsDefs1002"></defs><g id="SvgjsG1008"><svg xmlns="http://www.w3.org/2000/svg" viewBox="0 0 500 500" width="288" height="288"><path fill="#ffffff" d="M0 0 C62.7 0 125.4 0 190 0 C189.67 10.23 189.34 20.46 189 31 C199.1123008 30.88128847 199.1123008 30.88128847 209.22412109 30.72973633 C210.47789551 30.72224365 211.73166992 30.71475098 213.0234375 30.70703125 C214.31169434 30.6913208 215.59995117 30.67561035 216.92724609 30.65942383 C217.94125488 30.77181396 218.95526367 30.8842041 220 31 C220.66 31.99 221.32 32.98 222 34 C221.67 34.33 221.34 34.66 221 35 C220.90028214 36.91458282 220.86919411 38.83282317 220.8671875 40.75 C220.86525391 42.49796875 220.86525391 42.49796875 220.86328125 44.28125 C220.86714844 45.5084375 220.87101562 46.735625 220.875 48 C220.87113281 49.2271875 220.86726563 50.454375 220.86328125 51.71875 C220.86457031 52.8840625 220.86585938 54.049375 220.8671875 55.25 C220.86831543 56.32765625 220.86944336 57.4053125 220.87060547 58.515625 C220.71907629 60.94219997 220.71907629 60.94219997 222 62 C224.13418255 62.07551955 226.27083095 62.08308786 228.40625 62.0625 C229.70691406 62.05476563 231.00757813 62.04703125 232.34765625 62.0390625 C233.7317761 62.02661361 235.11589084 62.01358555 236.5 62 C239.19795851 61.97351852 241.89567869 61.95354403 244.59375 61.9375 C245.79708984 61.92589844 247.00042969 61.91429687 248.24023438 61.90234375 C251 62 251 62 252 63 C252.15873955 65.21687994 252.25133837 67.43855298 252.31640625 69.66015625 C252.35451416 70.87582275 252.39262207 72.09148926 252.43188477 73.34399414 C252.47498779 74.90110107 252.51809082 76.45820801 252.5625 78.0625 C252.706875 82.991875 252.85125 87.92125 253 93 C262.9 93 272.8 93 283 93 C283.72321214 98.06248496 284.14167667 102.69313466 284.12025452 107.75120544 C284.12153615 108.8749867 284.12153615 108.8749867 284.12284368 110.02147061 C284.12448193 112.51490825 284.11900438 115.00827761 284.11352539 117.50170898 C284.11324314 119.29582213 284.113402 121.08993539 284.1139679 122.88404846 C284.11425437 127.74299328 284.10838178 132.60191332 284.10139394 137.46085238 C284.09513553 142.54307857 284.09455463 147.62530535 284.09336853 152.70753479 C284.09026255 162.32628386 284.08205904 171.94502153 284.07201904 181.56376559 C284.06083514 192.51655958 284.05534171 203.46935412 284.05032361 214.4221524 C284.03987582 236.94810791 284.02229057 259.47405332 284 282 C280.52720596 283.15759801 278.01961176 283.02260483 274.36328125 282.87890625 C273.06455078 282.83056641 271.76582031 282.78222656 270.42773438 282.73242188 C269.05598467 282.67590048 267.68423993 282.61925831 266.3125 282.5625 C264.92905584 282.50925949 263.54559234 282.45651922 262.16210938 282.40429688 C258.77451675 282.27445883 255.38720686 282.13948625 252 282 C252.01571045 282.9286084 252.0314209 283.8572168 252.04760742 284.81396484 C252.09868853 288.25428829 252.13632607 291.69420976 252.16479492 295.13476562 C252.179896 296.62473909 252.20037858 298.11466801 252.22631836 299.60449219 C252.26264584 301.7442523 252.27971221 303.88342566 252.29296875 306.0234375 C252.3086792 307.31169434 252.32438965 308.59995117 252.34057617 309.92724609 C252.22818604 310.94125488 252.1157959 311.95526367 252 313 C251.01 313.66 250.02 314.32 249 315 C248.67 314.67 248.34 314.34 248 314 C246.08541718 313.90028214 244.16717683 313.86919411 242.25 313.8671875 C241.0846875 313.86589844 239.919375 313.86460937 238.71875 313.86328125 C237.4915625 313.86714844 236.264375 313.87101562 235 313.875 C233.7728125 313.87113281 232.545625 313.86726563 231.28125 313.86328125 C230.1159375 313.86457031 228.950625 313.86585938 227.75 313.8671875 C226.67234375 313.86831543 225.5946875 313.86944336 224.484375 313.87060547 C222.05780003 313.71907629 222.05780003 313.71907629 221 315 C220.84174742 316.99782126 220.74880829 319.00088834 220.68359375 321.00390625 C220.64169922 322.21884766 220.59980469 323.43378906 220.55664062 324.68554688 C220.51732422 325.96494141 220.47800781 327.24433594 220.4375 328.5625 C220.39431641 329.84576172 220.35113281 331.12902344 220.30664062 332.45117188 C220.200152 335.63399853 220.09814038 338.81690674 220 342 C220.66 342.33 221.32 342.66 222 343 C220 345 220 345 216.92724609 345.22705078 C215.63898926 345.21657715 214.35073242 345.20610352 213.0234375 345.1953125 C211.76966309 345.19031738 210.51588867 345.18532227 209.22412109 345.18017578 C207.62391113 345.16196777 206.02370117 345.14375977 204.375 345.125 C199.30125 345.08375 194.2275 345.0425 189 345 C189.33 355.56 189.66 366.12 190 377 C166.55596914 377.02316256 143.11194104 377.04100161 119.66790104 377.05181217 C108.78209608 377.05696542 97.89629836 377.06398963 87.01049805 377.07543945 C77.52091909 377.08541594 68.03134539 377.09186049 58.54176134 377.09408849 C53.5185118 377.09539056 48.49527727 377.09844453 43.47203255 377.10573006 C38.74022626 377.11253704 34.00844112 377.11460745 29.2766304 377.11310768 C27.54368538 377.11338191 25.81073962 377.1153592 24.07779884 377.11920547 C21.70309051 377.1242159 19.32846095 377.12297141 16.95375061 377.12025452 C15.93668151 377.12462378 15.93668151 377.12462378 14.89906555 377.12908131 C9.80575156 377.11344156 5.14335373 376.57148375 0 376 C0.33 365.77 0.66 355.54 1 345 C-9.56 345 -20.12 345 -31 345 C-32.08336383 341.74990851 -31.76898926 339.67000613 -31.29345703 336.3359375 C-30.75816241 332.07495673 -30.62758714 327.78786734 -30.4375 323.5 C-30.39431641 322.5821875 -30.35113281 321.664375 -30.30664062 320.71875 C-30.20166544 318.47927939 -30.09950752 316.23971908 -30 314 C-30.83249268 314 -31.66498535 314 -32.52270508 314 C-42.01513672 314 -51.50756836 314 -61 314 C-62.88631543 312.11368457 -62.24265292 308.85799307 -62.31640625 306.33984375 C-62.33718735 305.67537735 -62.35796844 305.01091095 -62.37937927 304.3263092 C-62.44493658 302.19681457 -62.50378785 300.06719332 -62.5625 297.9375 C-62.60567939 296.49673153 -62.64929349 295.05597601 -62.69335938 293.61523438 C-62.80062393 290.0769596 -62.90187371 286.53854131 -63 283 C-63.90355225 283.00523682 -64.80710449 283.01047363 -65.73803711 283.01586914 C-69.07951489 283.03287686 -72.42094692 283.04543333 -75.76245117 283.05493164 C-77.21070073 283.05997101 -78.65894517 283.06680253 -80.10717773 283.07543945 C-82.18474588 283.08752247 -84.26224697 283.09323211 -86.33984375 283.09765625 C-87.59144287 283.10289307 -88.84304199 283.10812988 -90.13256836 283.11352539 C-93 283 -93 283 -94 282 C-94.10210151 279.58870856 -94.13887659 277.20590744 -94.13371277 274.79396057 C-94.13597833 274.03089299 -94.13824388 273.2678254 -94.14057809 272.48163456 C-94.14694692 269.9051404 -94.14608689 267.32869846 -94.14526367 264.75219727 C-94.14825336 262.912953 -94.15165545 261.07370936 -94.15544128 259.23446655 C-94.1643047 254.22421735 -94.16662037 249.2139852 -94.16725707 244.20372891 C-94.16820419 240.02851394 -94.17188019 235.85330299 -94.17542917 231.67808956 C-94.18358258 221.83185908 -94.18601259 211.98563776 -94.18530273 202.1394043 C-94.18470166 191.96528624 -94.19525729 181.79122116 -94.2110464 171.61711651 C-94.22409943 162.89696488 -94.22948758 154.17683061 -94.22884732 145.45666927 C-94.22859168 140.24193808 -94.23147919 135.02725393 -94.24202538 129.81253242 C-94.25166886 124.90998918 -94.25181148 120.00753831 -94.24450874 115.10499191 C-94.24345822 113.30137816 -94.24585329 111.49775877 -94.2518692 109.69415474 C-94.25952641 107.24033365 -94.25498641 104.78683662 -94.24723816 102.33302307 C-94.25238172 101.61192354 -94.25752529 100.89082401 -94.26282471 100.14787298 C-94.22827124 95.22827124 -94.22827124 95.22827124 -92 93 C-89.01904297 92.77294922 -89.01904297 92.77294922 -85.2421875 92.8046875 C-84.02901855 92.80968262 -82.81584961 92.81467773 -81.56591797 92.81982422 C-80.01791504 92.83803223 -78.46991211 92.85624023 -76.875 92.875 C-71.96625 92.91625 -67.0575 92.9575 -62 93 C-62 83.1 -62 73.2 -62 63 C-58.22528434 62.05632108 -55.34659165 61.88478822 -51.484375 61.90234375 C-49.79393066 61.90609009 -49.79393066 61.90609009 -48.06933594 61.90991211 C-46.64395508 61.91901611 -45.21857422 61.92812012 -43.75 61.9375 C-39.2125 61.958125 -34.675 61.97875 -30 62 C-30 52.76 -30 43.52 -30 34 C-30.99 33.505 -30.99 33.505 -32 33 C-30 31 -30 31 -26.92724609 30.77294922 C-25.63898926 30.78342285 -24.35073242 30.79389648 -23.0234375 30.8046875 C-21.76966309 30.80968262 -20.51588867 30.81467773 -19.22412109 30.81982422 C-17.62391113 30.83803223 -16.02370117 30.85624023 -14.375 30.875 C-9.30125 30.91625 -4.2275 30.9575 1 31 C0.67 20.77 0.34 10.54 0 0 Z M2 32 C1.67 42.23 1.34 52.46 1 63 C-13.375 62.875 -13.375 62.875 -17.90771484 62.81982422 C-19.08027832 62.8148291 -20.2528418 62.80983398 -21.4609375 62.8046875 C-22.66540527 62.79421387 -23.86987305 62.78374023 -25.11083984 62.77294922 C-28.12841495 62.69539186 -28.12841495 62.69539186 -30 65 C-30.27862664 67.7841949 -30.27862664 67.7841949 -30.1953125 71.03125 C-30.18886719 72.23394531 -30.18242188 73.43664062 -30.17578125 74.67578125 C-30.15902344 75.93777344 -30.14226562 77.19976562 -30.125 78.5 C-30.11597656 79.76199219 -30.10695313 81.02398437 -30.09765625 82.32421875 C-30.07345696 85.54963774 -30.03828393 88.77472603 -30 92 C-30 92.66 -30 93.32 -30 94 C-45.345 94.495 -45.345 94.495 -61 95 C-61 156.38 -61 217.76 -61 281 C-50.77 281.33 -40.54 281.66 -30 282 C-30 283.55797863 -30.01324641 285.11595924 -30.03173828 286.67382812 C-30.07319939 290.28251927 -30.09919627 293.89116459 -30.125 297.5 C-30.14175781 298.76199219 -30.15851563 300.02398437 -30.17578125 301.32421875 C-30.18222656 302.52691406 -30.18867187 303.72960937 -30.1953125 304.96875 C-30.20578613 306.07669922 -30.21625977 307.18464844 -30.22705078 308.32617188 C-30.27636149 311.15346635 -30.27636149 311.15346635 -28 313 C-24.98736275 313.27891147 -24.98736275 313.27891147 -21.4609375 313.1953125 C-19.70209229 313.18781982 -19.70209229 313.18781982 -17.90771484 313.18017578 C-16.41191895 313.16196777 -14.91612305 313.14375977 -13.375 313.125 C-6.259375 313.063125 -6.259375 313.063125 1 313 C1.495 328.345 1.495 328.345 2 344 C26.10373196 344.02311623 50.20746125 344.0409778 74.31120205 344.05181217 C85.5021496 344.05697572 96.69309015 344.06401954 107.8840332 344.07543945 C117.63429378 344.08538449 127.38454929 344.091853 137.1348148 344.09408849 C142.30089098 344.09539591 147.46695267 344.09848369 152.63302422 344.10573006 C157.48956334 344.11248744 162.3460819 344.11461754 167.20262527 344.11310768 C168.99053242 344.11338414 170.77844021 344.11539092 172.56634331 344.11920547 C174.99639799 344.12413833 177.42637377 344.12299981 179.85643005 344.12025452 C180.93179894 344.12462378 180.93179894 344.12462378 182.02889246 344.12908131 C185.29535522 344.39965849 185.29535522 344.39965849 188 343 C188.15873955 340.78312006 188.25133837 338.56144702 188.31640625 336.33984375 C188.33718735 335.67537735 188.35796844 335.01091095 188.37937927 334.3263092 C188.44493658 332.19681457 188.50378785 330.06719332 188.5625 327.9375 C188.60567939 326.49673153 188.64929349 325.05597601 188.69335938 323.61523438 C188.80062393 320.0769596 188.90187371 316.53854131 189 313 C189.86802246 313.01571045 190.73604492 313.0314209 191.63037109 313.04760742 C194.84698287 313.09869555 198.06338813 313.13633027 201.28027344 313.16479492 C202.67324622 313.17989358 204.06617138 313.20037444 205.45898438 313.22631836 C207.45942885 313.26265122 209.46021827 313.27811192 211.4609375 313.29296875 C212.66540527 313.3086792 213.86987305 313.32438965 215.11083984 313.34057617 C216.0642627 313.22818604 217.01768555 313.1157959 218 313 C220.42204038 309.36693942 220.23302891 307.68180977 220.1953125 303.36328125 C220.18781982 301.60818237 220.18781982 301.60818237 220.18017578 299.81762695 C220.16196777 298.33093506 220.14375977 296.84424316 220.125 295.3125 C220.063125 288.2278125 220.063125 288.2278125 220 281 C230.23 281 240.46 281 251 281 C251 219.62 251 158.24 251 95 C240.77 94.67 230.54 94.34 220 94 C220 84 220 74 220 64 C217.12981559 62.56490779 214.66456277 62.88841494 211.4609375 62.90234375 C210.28837402 62.90484131 209.11581055 62.90733887 207.90771484 62.90991211 C206.41191895 62.91901611 204.91612305 62.92812012 203.375 62.9375 C196.259375 62.9684375 196.259375 62.9684375 189 63 C188.67 52.77 188.34 42.54 188 32 C126.62 32 65.24 32 2 32 Z " transform="translate(155 62)" class="svgShape color010101-0 selectable"></path><path fill="#ffffff" d="M0 0 C1.31253754 -0.00281982 2.62507507 -0.00563965 3.97738647 -0.00854492 C5.44561781 -0.00660032 6.91384901 -0.00455213 8.38208008 -0.00241089 C9.91753175 -0.00376486 11.45298311 -0.00554477 12.98843384 -0.00772095 C17.17013463 -0.01229573 21.35181087 -0.01050554 25.53351212 -0.00734186 C29.89994627 -0.00481849 34.26637826 -0.00715573 38.6328125 -0.00872803 C45.96688211 -0.01054979 53.30094168 -0.00814324 60.63500977 -0.00338745 C69.12660751 0.00205518 77.61818124 0.00029253 86.1097784 -0.00521386 C93.38703842 -0.00974479 100.66429119 -0.01039563 107.94155216 -0.00777519 C112.29383297 -0.00621231 116.64610248 -0.00601895 120.99838257 -0.00931168 C125.08915715 -0.01219011 129.17990064 -0.01021521 133.27067184 -0.00441742 C134.77638065 -0.00308967 136.28209205 -0.00348419 137.78779984 -0.00568008 C139.83460652 -0.00839098 141.8814189 -0.0043973 143.92822266 0 C145.07639969 0.00037703 146.22457672 0.00075405 147.407547 0.0011425 C149.96411133 0.12698364 149.96411133 0.12698364 150.96411133 1.12698364 C151.05937938 4.07944719 151.08963585 7.00846785 151.07763672 9.96121216 C151.07778275 10.88794739 151.07792877 11.81468262 151.07807922 12.76950073 C151.07737971 15.84832051 151.06958554 18.92708061 151.06176758 22.00588989 C151.05990353 24.13438382 151.05847957 26.26287817 151.05747986 28.39137268 C151.0536536 34.00560685 151.04382241 39.61981532 151.03277588 45.23403931 C151.02256406 50.95811617 151.01798273 56.68219718 151.01293945 62.40628052 C151.00220023 73.64652802 150.98460257 84.88674968 150.96411133 96.12698364 C140.07411133 96.12698364 129.18411133 96.12698364 117.96411133 96.12698364 C117.96411133 75.66698364 117.96411133 55.20698364 117.96411133 34.12698364 C87.60411133 34.12698364 57.24411133 34.12698364 25.96411133 34.12698364 C25.96411133 54.58698364 25.96411133 75.04698364 25.96411133 96.12698364 C15.07411133 96.12698364 4.18411133 96.12698364 -7.03588867 96.12698364 C-7.05843803 83.75779325 -7.07680279 71.38861639 -7.08770084 59.01941013 C-7.09293009 53.27653302 -7.10002848 47.53367064 -7.11132812 41.790802 C-7.12215554 36.2535837 -7.1281652 30.7163796 -7.13076591 25.17915154 C-7.13262043 23.06154087 -7.13624153 20.94393102 -7.14161873 18.82632637 C-7.14882723 15.8712709 -7.14987969 12.91627494 -7.14941406 9.96121216 C-7.15300934 9.07648727 -7.15660461 8.19176239 -7.16030884 7.28022766 C-7.14813614 0.18983324 -6.99626204 0.00229735 0 0 Z " transform="translate(178.036 263.873)" class="svgShape color0a0a0a-1 selectable"></path><path fill="#ffffff" d="M0 0 C0.19999795 8.04893336 0.38374053 16.0980017 0.54658794 24.14776421 C0.6227142 27.88536983 0.70449088 31.62267551 0.79907227 35.35986328 C0.89009806 38.96470339 0.96642302 42.56957945 1.03244972 46.17496109 C1.06027779 47.55222353 1.09345297 48.92938839 1.13199425 50.30639267 C1.18496289 52.23110762 1.21737263 54.15635547 1.2487793 56.08154297 C1.27320602 57.17852509 1.29763275 58.2755072 1.32279968 59.4057312 C1.21627579 60.2618399 1.10975189 61.11794861 1 62 C-2.47173408 64.31448939 -3.8125625 64.2527036 -7.90844727 64.25878906 C-9.12303116 64.26509338 -10.33761505 64.27139771 -11.58900452 64.27789307 C-12.90154709 64.2738446 -14.21408966 64.26979614 -15.56640625 64.265625 C-16.92496307 64.2669722 -18.28351942 64.26891319 -19.64207458 64.27142334 C-22.48758541 64.27437105 -25.33297059 64.27008774 -28.1784668 64.26074219 C-31.82939155 64.24933687 -35.4800226 64.25591597 -39.13093662 64.26788712 C-41.93529992 64.27510606 -44.73959329 64.27281785 -47.54395866 64.26763153 C-49.54595505 64.26564529 -51.54795414 64.27172756 -53.54994202 64.27789307 C-54.76137375 64.27158875 -55.97280548 64.26528442 -57.22094727 64.25878906 C-58.29111588 64.25719788 -59.36128448 64.25560669 -60.46388245 64.25396729 C-63 64 -63 64 -65 62 C-65.20254517 59.4057312 -65.20254517 59.4057312 -65.13525391 56.08154297 C-65.11508209 54.84040741 -65.09491028 53.59927185 -65.0741272 52.32052612 C-65.04182178 50.96107476 -65.00929496 49.60162865 -64.9765625 48.2421875 C-64.95039885 46.85500705 -64.92513156 45.46780942 -64.90072632 44.08059692 C-64.83404087 40.42745249 -64.7551561 36.77466866 -64.67376709 33.12182617 C-64.59288026 29.39516046 -64.52347954 25.66828304 -64.453125 21.94140625 C-64.31335295 14.62734766 -64.16069829 7.31363191 -64 0 C-55.95084699 -0.15371555 -47.90161947 -0.30189705 -39.85223579 -0.4429636 C-36.11481259 -0.50863748 -32.37744464 -0.57623581 -28.64013672 -0.64819336 C-25.03517435 -0.71753258 -21.43015459 -0.78186742 -17.82503891 -0.84269524 C-16.44786192 -0.86681885 -15.07071559 -0.89276262 -13.69360733 -0.92053413 C-11.76864694 -0.95904661 -9.8435503 -0.99055769 -7.91845703 -1.02172852 C-6.27298386 -1.05170677 -6.27298386 -1.05170677 -4.5942688 -1.08229065 C-2 -1 -2 -1 0 0 Z " transform="translate(282 156)" class="svgShape color030303-2 selectable"></path><path fill="#ffffff" d="M0 0 C0.33 0 0.66 0 1 0 C1.19244514 4.50192316 1.37113658 9.00410309 1.53710938 13.50708008 C1.59550403 15.03880437 1.65765305 16.57039033 1.72363281 18.10180664 C1.81782927 20.30329197 1.89850637 22.50492189 1.9765625 24.70703125 C2.00875885 25.39150833 2.0409552 26.07598541 2.0741272 26.78120422 C2.19040732 30.47299643 2.11526175 31.82710738 0 35 C0 34.01 0 33.02 0 32 C-2.31 32 -4.62 32 -7 32 C-7 31.67 -7 31.34 -7 31 C-4.69 31 -2.38 31 0 31 C0 20.77 0 10.54 0 0 Z " transform="translate(156 375)" class="svgShape color202020-3 selectable"></path></svg></g></svg>